PathFileType	4	(X/Y/Z)	C:\Users\WrightLab\Desktop\Jo\P5V18.trc
DataRate	CameraRate	NumFrames	NumMarkers	Units	OrigDataRate	OrigDataStartFrame	OrigNumFrames
100.00	100.00	       9	19	mm	100.00	558	       892
Frame#	Time	Headset_Front			Headset_Back			Headset_Left			Headset_Right			Left_Shoulder			Right_Shoulder			Sternum			C7			Left Elbow			Right Elbow			Left Wrist			Right Wrist			Left ASIS			Right ASIS			S2			Left Knee			Right Knee			Left Ankle			Right Ankle			
		X1	Y1	Z1	X2	Y2	Z2	X3	Y3	Z3	X4	Y4	Z4	X5	Y5	Z5	X6	Y6	Z6	X7	Y7	Z7	X8	Y8	Z8	X9	Y9	Z9	X10	Y10	Z10	X11	Y11	Z11	X12	Y12	Z12	X13	Y13	Z13	X14	Y14	Z14	X15	Y15	Z15	X16	Y16	Z16	X17	Y17	Z17	X18	Y18	Z18	X19	Y19	Z19	

558	5.570	313.36911	1575.11768	234.85875	206.01358	1494.49084	165.26358							35.26084	1540.51196	337.33081	364.91568	1523.44861	517.78583	268.72571	1362.02551	351.53976	132.36073	1555.99878	516.74481	-158.32085	1479.17065	172.56638	413.04108	1286.43640	690.69781	-160.39465	1514.76379	-73.58863	503.95609	1088.18970	572.06708	195.20490	989.84302	259.79330	386.56894	1007.87604	471.86594	86.20808	1017.50720	518.31183	180.52930	514.87543	287.75171	443.97870	542.36212	502.38657	194.59332	100.89478	400.57944	175.06396	240.87424	658.93677	
559	5.580	317.72882	1575.14502	231.60768	210.03052	1493.82861	162.94746							40.01065	1540.92871	334.64139	369.83884	1523.01575	515.57458	273.40305	1361.81543	349.27203	136.45200	1556.76440	514.35760	-154.26526	1478.89355	170.87401	418.45792	1287.19214	687.84052	-157.57817	1514.69800	-73.32130	509.13922	1088.45215	569.33936	199.24989	990.00616	257.91266	391.54266	1008.15778	468.75479	91.22137	1018.10132	518.20624	182.59587	514.80707	284.59842	453.19119	545.91541	495.80856	194.89883	101.20271	400.64999	190.19209	237.97482	654.26868	
560	5.590	321.70587	1575.27966	228.40791	213.74792	1493.81580	159.67307							44.04988	1540.93530	332.53702	375.39151	1524.28076	512.88312	277.12967	1361.59180	346.63153	141.47247	1557.17334	511.98557	-150.68315	1478.86597	169.06256	424.25305	1288.05188	685.15363	-155.61792	1513.89648	-76.02220	513.99921	1088.85693	567.45331	202.42120	990.04456	255.62405	395.17209	1007.96185	464.84866	95.81924	1017.82080	517.33832	185.13223	514.47504	281.14664	462.51089	549.88788	487.62189	195.12273	101.27109	400.72086	206.10468	233.84134	649.17493	
561	5.600	324.40170	1574.36682	225.79810	217.55148	1493.82935	157.16609							48.36505	1541.14648	330.27087	380.13226	1524.16528	508.73907	281.73660	1362.09460	344.38297	147.23077	1557.64160	509.05780	-147.06885	1478.36804	167.50873	429.45645	1288.43042	682.45111	-153.28952	1512.62378	-76.50900	518.89502	1088.98340	564.83069	204.96892	989.63507	253.57523	399.99426	1008.49457	462.02872	100.12506	1017.71698	517.19647	187.72942	514.99609	277.95663	472.38425	554.88013	479.62766	195.14784	101.62948	400.83578	222.85130	229.21706	644.25500	
562	5.610	328.09317	1573.80896	221.33568	221.77637	1493.31677	155.57072							53.01042	1541.70923	327.53958	385.58328	1521.75879	503.64044	285.96759	1362.23059	341.39001	152.50954	1557.87891	506.30820	-144.19171	1478.09131	166.88091	434.92621	1288.90125	679.09918	-150.96237	1511.69946	-77.96982	524.27948	1089.18445	562.34052	208.19109	989.08856	252.15370	404.06525	1008.28455	458.93848	103.74792	1018.23340	516.59296	190.84639	514.79016	274.58090	478.10199	557.97156	472.22559	195.45435	101.74565	400.92017	239.63982	224.05782	638.72614	
563	5.620	332.47702	1573.87988	218.91908	225.38013	1493.48865	152.55568							57.32518	1541.65161	325.40405	390.19055	1521.93127	499.64459	290.13620	1362.09705	338.16443	156.96362	1558.20496	503.69373	-140.31264	1477.54883	165.56573	440.65457	1289.39746	676.62860	-148.63358	1510.89270	-79.91352	529.33881	1089.40442	560.10474	211.74464	988.70837	250.15594	408.19910	1008.46460	456.03836	108.40645	1018.37543	515.50446	193.51323	514.65826	271.62775	485.67157	561.90350	464.60168	195.80989	101.99286	401.10855	256.95084	217.78815	632.77246	
564	5.630	336.69354	1574.24548	215.50066	229.07536	1493.26013	148.91267							61.89629	1541.61475	323.17889	394.72974	1524.56946	499.42984	294.79422	1362.17163	336.42468	161.98143	1558.91382	501.16766	-136.72188	1477.35645	164.53365	446.26764	1289.98425	673.55518	-144.95123	1509.69775	-79.69794	534.49976	1089.38159	557.19891	215.07976	988.36670	247.98944	412.51657	1008.34424	453.37991	112.62770	1018.18176	514.50488	196.86363	514.30896	268.21835	491.19171	564.83191	458.87802	196.61890	102.13662	401.25687	274.84827	211.23256	627.59357	
565	5.640	341.51038	1574.82129	212.77515	232.61406	1493.48743	145.34332							65.58208	1541.95239	321.28406	400.13266	1525.39441	496.99115	298.76453	1362.15979	333.47067	166.47108	1559.37146	499.10098	-132.95415	1476.94250	163.54547	451.54175	1290.28162	670.85455	-144.04494	1509.45386	-81.98995	539.45917	1089.31152	554.69379	218.16135	987.81494	246.90341	416.98947	1008.20081	450.59555	116.43640	1019.22015	513.42023	200.42273	514.67798	264.77353	496.61945	567.43402	453.15567	196.78900	102.40012	401.50223	293.32101	204.45743	621.51532	
566	5.650	345.56976	1573.86523	209.39867	236.45164	1493.03088	143.60442							70.43469	1542.36865	318.90601	405.59952	1524.82080	493.02420	302.90536	1362.00500	331.32935	172.69521	1559.45471	496.57333	-129.20332	1476.69409	162.33797	456.90930	1290.66003	667.67596	-141.76718	1508.44238	-82.99229	544.43286	1089.37097	551.77380	221.39331	987.25311	245.11290	421.36542	1008.13940	447.70502	121.27179	1019.49323	511.78986	203.98836	514.26788	262.63422	501.48260	568.86249	447.70282	196.76961	102.55099	401.20953	311.97641	197.02829	614.50989	
